<svg id="e2drDFZGX7w1" xmlns="http://www.w3.org/2000/svg" xmlns:xlink="http://www.w3.org/1999/xlink" viewBox="0 0 546 396" shape-rendering="geometricPrecision" text-rendering="geometricPrecision"><path d="M249,37.626C209.633,44.778,204.279,47.45,144.032,90c-29.743,21.007-91.944,73.26-97.14,81.606-7.226,11.605,2.307,8.538,16.932-5.447c22.823-21.824,52.288-46.531,71.176-59.681c9.075-6.318,23.277-16.474,31.56-22.568s22.479-15.267,31.546-20.384C229.587,45.759,295.012,35.981,322.5,44.935c37.223,12.124,55.533,20.52,84,38.518c29.395,18.584,36.793,24.359,63.117,49.272c16.357,15.481,28.753,25.103,29.915,23.223c2.761-4.467-1.707-9.261-36.586-39.246C428.901,87.434,408.266,73.373,375,56.776c-46.081-22.99-78.087-27.855-126-19.15m78,18.899c0,1.389,5.587,4.199,12.416,6.245c23.305,6.983,70.013,33.224,88.565,49.759c22.434,19.994,27.676,21.745,8.079,2.699-23.243-22.589-52.372-40.596-87.378-54.015C327.587,53.127,327,53.001,327,56.525m-94.923,4.986c-43.165,13.615-100.751,51.714-117.172,77.522-9.421,14.808-6.544,17.653,5.89,5.823c5.338-5.079,17.13-13.694,26.205-19.144c9.075-5.451,17.175-10.81,18-11.909c3.17-4.221,26.685-14.481,54.788-23.905c16.108-5.402,28.603-10.507,27.765-11.345s-7.267.236-14.288,2.385c-44.163,13.522-58.006,20.041-94.516,44.506-25.94,17.382-20.746,8.971,7.232-11.712c37.926-28.037,65.311-42.216,97.685-50.578c16.44-4.247,19.24-5.63,11.334-5.6-5.775.021-16.09,1.802-22.923,3.957m41.73,12.568c2.919.761,6.969.711,9-.111s-.357-1.444-5.307-1.383-6.612.733-3.693,1.494M254.25,76.987c2.063.832,5.438.832,7.5,0c2.063-.832.375-1.513-3.75-1.513s-5.812.681-3.75,1.513m-14.864,15.91c-31.625,6.707-52.261,15.859-86.169,38.214C115.766,155.802,72,192.184,72,198.625c0,5.214,6.05,1.655,23.203-13.651c23.434-20.91,80.351-60.27,100.475-69.484c8.71-3.987,27.663-10.059,42.119-13.492c24.898-5.913,27.826-6.012,55.608-1.874c28.388,4.228,34.19,6.057,69.595,21.94c13.854,6.215,57.211,31.314,75.606,43.767c6.392,4.327,10.466.781,5.701-4.961-6.033-7.269-75.537-45.911-99.945-55.566-12.726-5.034-32.301-10.561-43.5-12.282s-23.737-3.699-27.862-4.396-19.251,1.225-33.614,4.271M342.25,87.99c.688.545,12.725,6.604,26.75,13.464c14.025,6.861,22.8,10.356,19.5,7.767C380.39,102.86,349.048,87,344.586,87c-1.973,0-3.023.446-2.336.99m-84.84,20.462c-51.25,6.874-92.744,29.529-181.565,99.131-22.949,17.984-19.346,31.06,8.213,29.802c16.44-.75,36.195,5.435,65.341,20.456c24.188,12.466,43.647,19.676,77.572,28.745c27.153,7.258,32.788,7.76,70.029,6.237c44.867-1.835,63.48-6.16,84.854-19.718c7.895-5.008,16.332-9.105,18.75-9.105s4.396-1.271,4.396-2.825c0-1.553,8.164-9.106,18.142-16.784c19.069-14.674,33.868-34.268,31.177-41.281-.876-2.282.494-5.88,3.044-7.997c2.551-2.116,4.637-5.498,4.637-7.515c0-4.531-9.696-13.598-14.54-13.598-1.963,0-12.657-5.594-23.764-12.431-77.883-47.939-115.442-59.936-166.286-53.117M396,115.133c0,.623,2.363,2.985,5.25,5.25c4.758,3.731,4.864,3.625,1.133-1.133-3.919-4.997-6.383-6.586-6.383-4.117m-73.425,11.199c8.515,2.144,13.882,5.381,15.056,9.08c1.003,3.161,5.097,7.892,9.097,10.513c6.414,4.203,7.272,6.98,7.272,23.542c0,22.241-8.437,39.906-27.124,56.788C320.344,232.156,315,237.663,315,238.492c0,9.595,30.303-21.324,39.685-40.492c3.634-7.425,6.845-19.315,7.135-26.423.654-16.052,2.804-18.707,5.249-6.482c1.117,5.584,3.154,8.503,5.097,7.303c4.543-2.809,2.178,12.244-4.26,27.102-15.718,36.277-56.877,56.649-101.736,50.354-49.47-6.942-86.868-39.086-81.62-70.153c2.603-15.403,6.312-14.873,8.119,1.161c1.556,13.801,15.758,39.464,20.29,36.663c1.509-.933-.564-6.571-4.607-12.529-5.516-8.127-7.352-14.806-7.352-26.738c0-8.747,1.35-16.738,3-17.758c1.74-1.075,3,1.846,3,6.956c0,4.845,2.249,10.662,4.999,12.927c4.549,3.747,4.836,3.106,3.188-7.133-.995-6.187-1.283-11.25-.639-11.25s3.986,6.363,7.426,14.14c8.32,18.809,13.691,24.386,31.505,32.711c22.472,10.501,37.308,11.851,53.166,4.836c18.242-8.069,27.552-27.103,25.711-52.562-1.457-20.139-4.383-23.087-20.738-20.893-10.019,1.344-11.618.76-11.618-4.237c0-5.018,5.077-12.995,8.272-12.995.589,0,7.025,1.499,14.303,3.332M415.5,132c1.02,1.65,2.449,3,3.177,3s1.323-1.35,1.323-3-1.43-3-3.177-3-2.343,1.35-1.323,3m-78.702,29.005c2.152,19.092-4.68,40.679-15.847,50.076-11.857,9.977-11.535,16.167.399,7.67c13.446-9.575,20.505-27.236,20.584-51.501.043-13.093-1.132-20.25-3.324-20.25-2.262,0-2.865,4.663-1.812,14.005M154.124,179.828c1.041,6.505,3.425,12.775,5.299,13.934c2.443,1.509,2.811-1.073,1.301-9.124-1.434-7.641-1.087-10.598,1.085-9.256c1.755,1.085,3.191,5.191,3.191,9.124c0,13.884,42.535,57.285,64.5,65.814c14.794,5.744,40.523,10.475,57.501,10.573c23.049.133,41.626-7.428,62.898-25.602C365.571,221.903,384,191.627,384,179.271c0-3.302,1.604-5.221,3.75-4.485c4.195,1.438,4.744,14.986,1.046,25.819-1.704,4.992-1.371,6.753,1.123,5.922c4.146-1.382,14.983-31.549,12.36-34.409-.978-1.066.246-1.312,2.721-.546c6.332,1.962,7.286,22.611,1.782,38.585-4.461,12.95-4.089,18.584.869,13.143C411.106,219.508,420,192.259,420,185.466c0-5.794,7.373-7.525,10.5-2.466c1.02,1.65,5.599,3,10.177,3s9.17.847,10.206,1.883c2.824,2.824-30.244,35.715-47.383,47.129-45.47,30.281-48.366,31.932-69.931,39.849-38.222,14.034-85.319,12.186-136.477-5.353-23.057-7.905-89.795-39.805-87.686-41.914.851-.851-2.331-.979-7.071-.283-8.214,1.205-8.627.715-8.781-10.429-.137-9.941,1.471-12.998,10.727-20.383c5.988-4.778,13.208-8.513,16.042-8.3c2.835.214,10.334-4.187,16.666-9.78c6.331-5.593,12.351-10.225,13.378-10.294c1.026-.069,2.717,5.198,3.757,11.703m321.648,9.955c1.225,7.246.56,12.907-1.859,15.822-2.073,2.497-2.887,5.421-1.81,6.498c2.863,2.863,10.69-8.573,10.802-15.78.052-3.397-1.961-8.797-4.473-12-4.255-5.425-4.437-5.052-2.66,5.46M103.969,203.242c-1.137,1.839-.754,4.155.851,5.147s2.157,3.785,1.228,6.207-.195,4.404,1.631,4.404c3.752,0,3.976-4.751.628-13.301-1.453-3.708-3.017-4.595-4.338-2.457M82.877,223.599C81.948,226.02,79.058,228,76.454,228c-4.131,0-4.047-.921.656-7.222c5.39-7.222,8.952-5.479,5.767,2.821m58.126,12.651c.003,2.184,27.559,18.75,31.189,18.75c5.57,0-.004-5.514-12.887-12.75-15.524-8.719-18.307-9.631-18.302-6M428.202,253.4c-21.207,26.578-64.454,52.58-99.965,60.103-31.586,6.691-51.829,5.477-104.479-6.268-53.062-11.837-85.668-23.177-108.387-37.695-13.263-8.476-17.385-9.533-38.121-9.772-16.283-.188-23.251.815-23.25,3.346c0,4.61,17.612,7.965,32.231,6.14c8.887-1.109,14.017.421,24.269,7.237c22.632,15.047,52.493,25.748,116,41.568c30.681,7.642,85.1,10.547,106.5,5.684c14.312-3.252,57-23.38,57-26.876c0-1.139,5.299-5.577,11.776-9.863C416.134,277.503,441,253.692,441,249.445c0-7.075-5.305-5.436-12.798,3.955m11.39,12.623c-10.797,13.296-27.676,28.833-46.592,42.888-4.125,3.065-6.673,6.403-5.663,7.418c5.578,5.603,67.875-53.192,65.119-61.46-.609-1.828-6.398,3.191-12.864,11.154M183,257.518c0,3.23,10.938,8.194,27.475,12.471c7.164,1.852,15.557,4.107,18.651,5.011c3.525,1.029,4.888.45,3.652-1.551-1.086-1.756-10.067-5.464-19.958-8.239-9.89-2.776-18.701-6.208-19.578-7.628-2.053-3.321-10.242-3.372-10.242-.064M99.445,286.594c1.456,7.563,25.558,22.165,40.272,24.399c14.952,2.27,10.897-2.119-8.585-9.291-7.903-2.909-18.511-8.774-23.574-13.035-7.988-6.721-9.061-6.995-8.113-2.073m336.472,6.07c-6.279,5.865-17.215,14.129-24.303,18.364-14.343,8.573-15.259,13.045-1.18,5.764c9.321-4.819,42.659-34.476,38.983-34.678-1.146-.063-7.221,4.685-13.5,10.55M465,285c-2.704,1.747-3.074,2.926-.927,2.954c1.965.025,4.407-1.304,5.427-2.954c2.302-3.725,1.263-3.725-4.5,0m-10.785,12.75L448.5,304.5l6.75-5.715c3.713-3.143,6.75-6.181,6.75-6.75c0-2.401-2.414-.628-7.785,5.715M96,302.383c0,4.595,6.322,8.638,24,15.35c18.728,7.11,21,7.463,21,3.267c0-1.65-1.312-3-2.914-3-2.293,0-26.74-10.646-39.836-17.349-1.237-.633-2.25.146-2.25,1.732m327,15.844c-9.075,4.919-13.125,8.06-9,6.978c9.991-2.618,23.17-9.435,25.487-13.184c2.515-4.069,2.365-4.013-16.487,6.206M93,316.449C93,319.281,122.904,333,129.077,333c9.986,0,4.305-4.833-10.577-9-7.51-2.103-14.374-4.988-15.254-6.412C101.574,314.883,93,313.93,93,316.449m123,13.276c0,1.417,3.713,3.377,8.25,4.357c11.725,2.532,65.552,6.068,63.75,4.188-.825-.86-10.995-2.328-22.6-3.262-11.604-.933-23.079-2.325-25.5-3.093-10.497-3.33-23.9-4.558-23.9-2.19m80.438,11.324c2.165.867,4.753.76,5.75-.236.996-.997-.775-1.706-3.938-1.576-3.495.144-4.206.855-1.812,1.812M234,344.977c9.583,3.696,59.974,8.492,61.598,5.864.675-1.092-7.846-2.884-18.935-3.982-48.859-4.839-50.522-4.912-42.663-1.882m69.75,5.091c2.888.755,7.613.755,10.5,0c2.888-.755.525-1.372-5.25-1.372s-8.137.617-5.25,1.372m-68.25,6.458c8.877,3.964,52.5,6.727,52.5,3.326c0-1.569-4.527-2.852-10.06-2.852s-18.695-.709-29.25-1.576c-12.51-1.028-17.102-.644-13.19,1.102m71.25-.314c-8.662.606-15.75,2.317-15.75,3.803c0,2.783,23.436,1.07,42-3.071l10.5-2.341-10.5.253c-5.775.14-17.587.75-26.25,1.356" fill="#fff" fill-rule="evenodd"/></svg>
