<?xml version="1.0" standalone="no"?>
   <!DOCTYPE svg PUBLIC "-//W3C//DTD SVG 1.1//EN" 
   "http://www.w3.org/Graphics/SVG/1.1/DTD/svg11.dtd"><svg id="svg" version="1.1" width="546" height="396" xmlns="http://www.w3.org/2000/svg"><path d="M249.000 37.626 C 209.633 44.778,204.279 47.450,144.032 90.000 C 114.289 111.007,52.088 163.260,46.892 171.606 C 39.666 183.211,49.199 180.144,63.824 166.159 C 86.647 144.335,116.112 119.628,135.000 106.478 C 144.075 100.160,158.277 90.004,166.560 83.910 C 174.843 77.816,189.039 68.643,198.106 63.526 C 229.587 45.759,295.012 35.981,322.500 44.935 C 359.723 57.059,378.033 65.455,406.500 83.453 C 435.895 102.037,443.293 107.812,469.617 132.725 C 485.974 148.206,498.370 157.828,499.532 155.948 C 502.293 151.481,497.825 146.687,462.946 116.702 C 428.901 87.434,408.266 73.373,375.000 56.776 C 328.919 33.786,296.913 28.921,249.000 37.626 M327.000 56.525 C 327.000 57.914,332.587 60.724,339.416 62.770 C 362.721 69.753,409.429 95.994,427.981 112.529 C 450.415 132.523,455.657 134.274,436.060 115.228 C 412.817 92.639,383.688 74.632,348.682 61.213 C 327.587 53.127,327.000 53.001,327.000 56.525 M232.077 61.511 C 188.912 75.126,131.326 113.225,114.905 139.033 C 105.484 153.841,108.361 156.686,120.795 144.856 C 126.133 139.777,137.925 131.162,147.000 125.712 C 156.075 120.261,164.175 114.902,165.000 113.803 C 168.170 109.582,191.685 99.322,219.788 89.898 C 235.896 84.496,248.391 79.391,247.553 78.553 C 246.715 77.715,240.286 78.789,233.265 80.938 C 189.102 94.460,175.259 100.979,138.749 125.444 C 112.809 142.826,118.003 134.415,145.981 113.732 C 183.907 85.695,211.292 71.516,243.666 63.154 C 260.106 58.907,262.906 57.524,255.000 57.554 C 249.225 57.575,238.910 59.356,232.077 61.511 M273.807 74.079 C 276.726 74.840,280.776 74.790,282.807 73.968 C 284.838 73.146,282.450 72.524,277.500 72.585 C 272.550 72.646,270.888 73.318,273.807 74.079 M254.250 76.987 C 256.313 77.819,259.688 77.819,261.750 76.987 C 263.813 76.155,262.125 75.474,258.000 75.474 C 253.875 75.474,252.188 76.155,254.250 76.987 M239.386 92.897 C 207.761 99.604,187.125 108.756,153.217 131.111 C 115.766 155.802,72.000 192.184,72.000 198.625 C 72.000 203.839,78.050 200.280,95.203 184.974 C 118.637 164.064,175.554 124.704,195.678 115.490 C 204.388 111.503,223.341 105.431,237.797 101.998 C 262.695 96.085,265.623 95.986,293.405 100.124 C 321.793 104.352,327.595 106.181,363.000 122.064 C 376.854 128.279,420.211 153.378,438.606 165.831 C 444.998 170.158,449.072 166.612,444.307 160.870 C 438.274 153.601,368.770 114.959,344.362 105.304 C 331.636 100.270,312.061 94.743,300.862 93.022 C 289.663 91.301,277.125 89.323,273.000 88.626 C 268.875 87.929,253.749 89.851,239.386 92.897 M342.250 87.990 C 342.938 88.535,354.975 94.594,369.000 101.454 C 383.025 108.315,391.800 111.810,388.500 109.221 C 380.390 102.860,349.048 87.000,344.586 87.000 C 342.613 87.000,341.563 87.446,342.250 87.990 M257.410 108.452 C 206.160 115.326,164.666 137.981,75.845 207.583 C 52.896 225.567,56.499 238.643,84.058 237.385 C 100.498 236.635,120.253 242.820,149.399 257.841 C 173.587 270.307,193.046 277.517,226.971 286.586 C 254.124 293.844,259.759 294.346,297.000 292.823 C 341.867 290.988,360.480 286.663,381.854 273.105 C 389.749 268.097,398.186 264.000,400.604 264.000 C 403.022 264.000,405.000 262.729,405.000 261.175 C 405.000 259.622,413.164 252.069,423.142 244.391 C 442.211 229.717,457.010 210.123,454.319 203.110 C 453.443 200.828,454.813 197.230,457.363 195.113 C 459.914 192.997,462.000 189.615,462.000 187.598 C 462.000 183.067,452.304 174.000,447.460 174.000 C 445.497 174.000,434.803 168.406,423.696 161.569 C 345.813 113.630,308.254 101.633,257.410 108.452 M396.000 115.133 C 396.000 115.756,398.363 118.118,401.250 120.383 C 406.008 124.114,406.114 124.008,402.383 119.250 C 398.464 114.253,396.000 112.664,396.000 115.133 M322.575 126.332 C 331.090 128.476,336.457 131.713,337.631 135.412 C 338.634 138.573,342.728 143.304,346.728 145.925 C 353.142 150.128,354.000 152.905,354.000 169.467 C 354.000 191.708,345.563 209.373,326.876 226.255 C 320.344 232.156,315.000 237.663,315.000 238.492 C 315.000 248.087,345.303 217.168,354.685 198.000 C 358.319 190.575,361.530 178.685,361.820 171.577 C 362.474 155.525,364.624 152.870,367.069 165.095 C 368.186 170.679,370.223 173.598,372.166 172.398 C 376.709 169.589,374.344 184.642,367.906 199.500 C 352.188 235.777,311.029 256.149,266.170 249.854 C 216.700 242.912,179.302 210.768,184.550 179.701 C 187.153 164.298,190.862 164.828,192.669 180.862 C 194.225 194.663,208.427 220.326,212.959 217.525 C 214.468 216.592,212.395 210.954,208.352 204.996 C 202.836 196.869,201.000 190.190,201.000 178.258 C 201.000 169.511,202.350 161.520,204.000 160.500 C 205.740 159.425,207.000 162.346,207.000 167.456 C 207.000 172.301,209.249 178.118,211.999 180.383 C 216.548 184.130,216.835 183.489,215.187 173.250 C 214.192 167.063,213.904 162.000,214.548 162.000 C 215.192 162.000,218.534 168.363,221.974 176.140 C 230.294 194.949,235.665 200.526,253.479 208.851 C 275.951 219.352,290.787 220.702,306.645 213.687 C 324.887 205.618,334.197 186.584,332.356 161.125 C 330.899 140.986,327.973 138.038,311.618 140.232 C 301.599 141.576,300.000 140.992,300.000 135.995 C 300.000 130.977,305.077 123.000,308.272 123.000 C 308.861 123.000,315.297 124.499,322.575 126.332 M415.500 132.000 C 416.520 133.650,417.949 135.000,418.677 135.000 C 419.405 135.000,420.000 133.650,420.000 132.000 C 420.000 130.350,418.570 129.000,416.823 129.000 C 415.076 129.000,414.480 130.350,415.500 132.000 M336.798 161.005 C 338.950 180.097,332.118 201.684,320.951 211.081 C 309.094 221.058,309.416 227.248,321.350 218.751 C 334.796 209.176,341.855 191.515,341.934 167.250 C 341.977 154.157,340.802 147.000,338.610 147.000 C 336.348 147.000,335.745 151.663,336.798 161.005 M154.124 179.828 C 155.165 186.333,157.549 192.603,159.423 193.762 C 161.866 195.271,162.234 192.689,160.724 184.638 C 159.290 176.997,159.637 174.040,161.809 175.382 C 163.564 176.467,165.000 180.573,165.000 184.506 C 165.000 198.390,207.535 241.791,229.500 250.320 C 244.294 256.064,270.023 260.795,287.001 260.893 C 310.050 261.026,328.627 253.465,349.899 235.291 C 365.571 221.903,384.000 191.627,384.000 179.271 C 384.000 175.969,385.604 174.050,387.750 174.786 C 391.945 176.224,392.494 189.772,388.796 200.605 C 387.092 205.597,387.425 207.358,389.919 206.527 C 394.065 205.145,404.902 174.978,402.279 172.118 C 401.301 171.052,402.525 170.806,405.000 171.572 C 411.332 173.534,412.286 194.183,406.782 210.157 C 402.321 223.107,402.693 228.741,407.651 223.300 C 411.106 219.508,420.000 192.259,420.000 185.466 C 420.000 179.672,427.373 177.941,430.500 183.000 C 431.520 184.650,436.099 186.000,440.677 186.000 C 445.255 186.000,449.847 186.847,450.883 187.883 C 453.707 190.707,420.639 223.598,403.500 235.012 C 358.030 265.293,355.134 266.944,333.569 274.861 C 295.347 288.895,248.250 287.047,197.092 269.508 C 174.035 261.603,107.297 229.703,109.406 227.594 C 110.257 226.743,107.075 226.615,102.335 227.311 C 94.121 228.516,93.708 228.026,93.554 216.882 C 93.417 206.941,95.025 203.884,104.281 196.499 C 110.269 191.721,117.489 187.986,120.323 188.199 C 123.158 188.413,130.657 184.012,136.989 178.419 C 143.320 172.826,149.340 168.194,150.367 168.125 C 151.393 168.056,153.084 173.323,154.124 179.828 M475.772 189.783 C 476.997 197.029,476.332 202.690,473.913 205.605 C 471.840 208.102,471.026 211.026,472.103 212.103 C 474.966 214.966,482.793 203.530,482.905 196.323 C 482.957 192.926,480.944 187.526,478.432 184.323 C 474.177 178.898,473.995 179.271,475.772 189.783 M103.969 203.242 C 102.832 205.081,103.215 207.397,104.820 208.389 C 106.425 209.381,106.977 212.174,106.048 214.596 C 105.119 217.018,105.853 219.000,107.679 219.000 C 111.431 219.000,111.655 214.249,108.307 205.699 C 106.854 201.991,105.290 201.104,103.969 203.242 M82.877 223.599 C 81.948 226.020,79.058 228.000,76.454 228.000 C 72.323 228.000,72.407 227.079,77.110 220.778 C 82.500 213.556,86.062 215.299,82.877 223.599 M141.003 236.250 C 141.006 238.434,168.562 255.000,172.192 255.000 C 177.762 255.000,172.188 249.486,159.305 242.250 C 143.781 233.531,140.998 232.619,141.003 236.250 M428.202 253.400 C 406.995 279.978,363.748 305.980,328.237 313.503 C 296.651 320.194,276.408 318.980,223.758 307.235 C 170.696 295.398,138.090 284.058,115.371 269.540 C 102.108 261.064,97.986 260.007,77.250 259.768 C 60.967 259.580,53.999 260.583,54.000 263.114 C 54.000 267.724,71.612 271.079,86.231 269.254 C 95.118 268.145,100.248 269.675,110.500 276.491 C 133.132 291.538,162.993 302.239,226.500 318.059 C 257.181 325.701,311.600 328.606,333.000 323.743 C 347.312 320.491,390.000 300.363,390.000 296.867 C 390.000 295.728,395.299 291.290,401.776 287.004 C 416.134 277.503,441.000 253.692,441.000 249.445 C 441.000 242.370,435.695 244.009,428.202 253.400 M439.592 266.023 C 428.795 279.319,411.916 294.856,393.000 308.911 C 388.875 311.976,386.327 315.314,387.337 316.329 C 392.915 321.932,455.212 263.137,452.456 254.869 C 451.847 253.041,446.058 258.060,439.592 266.023 M183.000 257.518 C 183.000 260.748,193.938 265.712,210.475 269.989 C 217.639 271.841,226.032 274.096,229.126 275.000 C 232.651 276.029,234.014 275.450,232.778 273.449 C 231.692 271.693,222.711 267.985,212.820 265.210 C 202.930 262.434,194.119 259.002,193.242 257.582 C 191.189 254.261,183.000 254.210,183.000 257.518 M99.445 286.594 C 100.901 294.157,125.003 308.759,139.717 310.993 C 154.669 313.263,150.614 308.874,131.132 301.702 C 123.229 298.793,112.621 292.928,107.558 288.667 C 99.570 281.946,98.497 281.672,99.445 286.594 M435.917 292.664 C 429.638 298.529,418.702 306.793,411.614 311.028 C 397.271 319.601,396.355 324.073,410.434 316.792 C 419.755 311.973,453.093 282.316,449.417 282.114 C 448.271 282.051,442.196 286.799,435.917 292.664 M465.000 285.000 C 462.296 286.747,461.926 287.926,464.073 287.954 C 466.038 287.979,468.480 286.650,469.500 285.000 C 471.802 281.275,470.763 281.275,465.000 285.000 M454.215 297.750 L 448.500 304.500 455.250 298.785 C 458.963 295.642,462.000 292.604,462.000 292.035 C 462.000 289.634,459.586 291.407,454.215 297.750 M96.000 302.383 C 96.000 306.978,102.322 311.021,120.000 317.733 C 138.728 324.843,141.000 325.196,141.000 321.000 C 141.000 319.350,139.688 318.000,138.086 318.000 C 135.793 318.000,111.346 307.354,98.250 300.651 C 97.013 300.018,96.000 300.797,96.000 302.383 M423.000 318.227 C 413.925 323.146,409.875 326.287,414.000 325.205 C 423.991 322.587,437.170 315.770,439.487 312.021 C 442.002 307.952,441.852 308.008,423.000 318.227 M93.000 316.449 C 93.000 319.281,122.904 333.000,129.077 333.000 C 139.063 333.000,133.382 328.167,118.500 324.000 C 110.990 321.897,104.126 319.012,103.246 317.588 C 101.574 314.883,93.000 313.930,93.000 316.449 M216.000 329.725 C 216.000 331.142,219.713 333.102,224.250 334.082 C 235.975 336.614,289.802 340.150,288.000 338.270 C 287.175 337.410,277.005 335.942,265.400 335.008 C 253.796 334.075,242.321 332.683,239.900 331.915 C 229.403 328.585,216.000 327.357,216.000 329.725 M296.438 341.049 C 298.603 341.916,301.191 341.809,302.188 340.813 C 303.184 339.816,301.413 339.107,298.250 339.237 C 294.755 339.381,294.044 340.092,296.438 341.049 M234.000 344.977 C 243.583 348.673,293.974 353.469,295.598 350.841 C 296.273 349.749,287.752 347.957,276.663 346.859 C 227.804 342.020,226.141 341.947,234.000 344.977 M303.750 350.068 C 306.638 350.823,311.363 350.823,314.250 350.068 C 317.138 349.313,314.775 348.696,309.000 348.696 C 303.225 348.696,300.863 349.313,303.750 350.068 M235.500 356.526 C 244.377 360.490,288.000 363.253,288.000 359.852 C 288.000 358.283,283.473 357.000,277.940 357.000 C 272.407 357.000,259.245 356.291,248.690 355.424 C 236.180 354.396,231.588 354.780,235.500 356.526 M306.750 356.212 C 298.088 356.818,291.000 358.529,291.000 360.015 C 291.000 362.798,314.436 361.085,333.000 356.944 L 343.500 354.603 333.000 354.856 C 327.225 354.996,315.413 355.606,306.750 356.212 " stroke="none" fill="black" fill-rule="evenodd"/></svg>