<svg xmlns="http://www.w3.org/2000/svg" version="1.1" xmlns:xlink="http://www.w3.org/1999/xlink" xmlns:svgjs="http://svgjs.dev/svgjs" viewBox="0 0 800 800"><defs><linearGradient x1="50%" y1="0%" x2="50%" y2="100%" id="vvvortex-grad"><stop stop-color="#9CBA8F" stop-opacity="1" offset="0%"></stop><stop stop-color="#EAC392" stop-opacity="1" offset="100%"></stop></linearGradient></defs><g stroke="url(#vvvortex-grad)" fill="none" stroke-linecap="round"><circle r="363" cx="400" cy="400" stroke-width="11" stroke-dasharray="28 46" stroke-dashoffset="25" transform="rotate(192, 400, 400)"></circle><circle r="346.5" cx="400" cy="400" stroke-width="11" stroke-dasharray="43 47" stroke-dashoffset="25" transform="rotate(313, 400, 400)"></circle><circle r="330" cx="400" cy="400" stroke-width="10" stroke-dasharray="29 31" stroke-dashoffset="25" transform="rotate(167, 400, 400)"></circle><circle r="313.5" cx="400" cy="400" stroke-width="10" stroke-dasharray="25 20" stroke-dashoffset="25" transform="rotate(92, 400, 400)"></circle><circle r="297" cx="400" cy="400" stroke-width="10" stroke-dasharray="38 17" stroke-dashoffset="25" transform="rotate(345, 400, 400)"></circle><circle r="280.5" cx="400" cy="400" stroke-width="10" stroke-dasharray="27 43" stroke-dashoffset="25" transform="rotate(308, 400, 400)"></circle><circle r="264" cx="400" cy="400" stroke-width="9" stroke-dasharray="27 45" stroke-dashoffset="25" transform="rotate(332, 400, 400)"></circle><circle r="247.5" cx="400" cy="400" stroke-width="9" stroke-dasharray="44 19" stroke-dashoffset="25" transform="rotate(230, 400, 400)"></circle><circle r="231" cx="400" cy="400" stroke-width="9" stroke-dasharray="49 17" stroke-dashoffset="25" transform="rotate(291, 400, 400)"></circle><circle r="214.5" cx="400" cy="400" stroke-width="8" stroke-dasharray="34 29" stroke-dashoffset="25" transform="rotate(205, 400, 400)"></circle><circle r="198" cx="400" cy="400" stroke-width="8" stroke-dasharray="30 43" stroke-dashoffset="25" transform="rotate(172, 400, 400)"></circle><circle r="181.5" cx="400" cy="400" stroke-width="8" stroke-dasharray="33 50" stroke-dashoffset="25" transform="rotate(342, 400, 400)"></circle><circle r="165" cx="400" cy="400" stroke-width="8" stroke-dasharray="39 54" stroke-dashoffset="25" transform="rotate(128, 400, 400)"></circle><circle r="148.5" cx="400" cy="400" stroke-width="7" stroke-dasharray="29 20" stroke-dashoffset="25" transform="rotate(273, 400, 400)"></circle><circle r="132" cx="400" cy="400" stroke-width="7" stroke-dasharray="19 38" stroke-dashoffset="25" transform="rotate(291, 400, 400)"></circle><circle r="115.5" cx="400" cy="400" stroke-width="7" stroke-dasharray="33 15" stroke-dashoffset="25" transform="rotate(63, 400, 400)"></circle><circle r="99" cx="400" cy="400" stroke-width="6" stroke-dasharray="53 31" stroke-dashoffset="25" transform="rotate(192, 400, 400)"></circle><circle r="82.5" cx="400" cy="400" stroke-width="6" stroke-dasharray="52 38" stroke-dashoffset="25" transform="rotate(167, 400, 400)"></circle><circle r="66" cx="400" cy="400" stroke-width="6" stroke-dasharray="19 29" stroke-dashoffset="25" transform="rotate(269, 400, 400)"></circle><circle r="49.5" cx="400" cy="400" stroke-width="6" stroke-dasharray="22 20" stroke-dashoffset="25" transform="rotate(194, 400, 400)"></circle><circle r="33" cx="400" cy="400" stroke-width="5" stroke-dasharray="46 31" stroke-dashoffset="25" transform="rotate(79, 400, 400)"></circle><circle r="16.5" cx="400" cy="400" stroke-width="5" stroke-dasharray="18 14" stroke-dashoffset="25" transform="rotate(132, 400, 400)"></circle></g></svg>